<svg width="31" height="24" viewBox="0 0 31 24" fill="none" xmlns="http://www.w3.org/2000/svg">
<path d="M0.348786 23.7829V17.1917C0.348786 15.2962 0.704191 13.3253 1.415 11.2791C2.14735 9.21126 3.13817 7.26192 4.38748 5.43105C5.65832 3.57864 7.07994 2.01702 8.65233 0.746172L14.0803 4.26791C12.8095 6.18494 11.7433 8.18813 10.8817 10.2775C10.0416 12.3453 9.63239 14.6285 9.65393 17.1271V23.7829H0.348786ZM16.7297 23.7829V17.1917C16.7297 15.2962 17.0851 13.3253 17.7959 11.2791C18.5283 9.21126 19.5191 7.26192 20.7684 5.43105C22.0392 3.57864 23.4609 2.01702 25.0333 0.746172L30.4613 4.26791C29.1904 6.18494 28.1242 8.18813 27.2626 10.2775C26.4226 12.3453 26.0133 14.6285 26.0349 17.1271V23.7829H16.7297Z" fill="#D3D0FF" fill-opacity="0.6"/>
</svg>
