<svg id="eCfH4zWoRit1" xmlns="http://www.w3.org/2000/svg" xmlns:xlink="http://www.w3.org/1999/xlink" viewBox="0 0 361 318" shape-rendering="geometricPrecision" text-rendering="geometricPrecision"><defs><linearGradient id="eCfH4zWoRit6-fill" x1="203.71" y1="107.689" x2="263.7" y2="49.8693" spreadMethod="pad" gradientUnits="userSpaceOnUse" gradientTransform="translate(0 0)"><stop id="eCfH4zWoRit6-fill-0" offset="0%" stop-color="#ff7c68"/><stop id="eCfH4zWoRit6-fill-1" offset="18%" stop-color="#f05966"/><stop id="eCfH4zWoRit6-fill-2" offset="36%" stop-color="#e43b64"/><stop id="eCfH4zWoRit6-fill-3" offset="52%" stop-color="#ff4c00"/><stop id="eCfH4zWoRit6-fill-4" offset="63%" stop-color="#fd4507"/></linearGradient><linearGradient id="eCfH4zWoRit10-fill" x1="202.66" y1="62.7794" x2="202.66" y2="159.499" spreadMethod="pad" gradientUnits="userSpaceOnUse" gradientTransform="translate(0 0)"><stop id="eCfH4zWoRit10-fill-0" offset="0%" stop-color="rgba(255,255,255,0.35)"/><stop id="eCfH4zWoRit10-fill-1" offset="21%" stop-color="rgba(255,255,255,0.88)"/><stop id="eCfH4zWoRit10-fill-2" offset="40%" stop-color="rgba(255,255,255,0.63)"/><stop id="eCfH4zWoRit10-fill-3" offset="59%" stop-color="rgba(255,255,255,0.69)"/><stop id="eCfH4zWoRit10-fill-4" offset="77%" stop-color="rgba(255,255,255,0.55)"/><stop id="eCfH4zWoRit10-fill-5" offset="93%" stop-color="rgba(255,255,255,0.72)"/></linearGradient><radialGradient id="eCfH4zWoRit11-fill" cx="0" cy="0" r="1" spreadMethod="pad" gradientUnits="userSpaceOnUse" gradientTransform="matrix(-20.8419 0.352881 -0.031071 -1.83514 177.144 72.7996)"><stop id="eCfH4zWoRit11-fill-0" offset="0%" stop-color="#b1b1b0"/><stop id="eCfH4zWoRit11-fill-1" offset="15%" stop-color="rgba(152,152,151,0.81)"/><stop id="eCfH4zWoRit11-fill-2" offset="44%" stop-color="rgba(106,106,105,0.47)"/><stop id="eCfH4zWoRit11-fill-3" offset="69%" stop-color="rgba(73,73,72,0.21)"/><stop id="eCfH4zWoRit11-fill-4" offset="89%" stop-color="rgba(52,52,51,0.06)"/><stop id="eCfH4zWoRit11-fill-5" offset="100%" stop-color="rgba(45,45,44,0)"/></radialGradient><radialGradient id="eCfH4zWoRit12-fill" cx="0" cy="0" r="1" spreadMethod="pad" gradientUnits="userSpaceOnUse" gradientTransform="matrix(-20.8419 0.352881 -0.031071 -1.83514 227.168 126.09)"><stop id="eCfH4zWoRit12-fill-0" offset="0%" stop-color="#b1b1b0"/><stop id="eCfH4zWoRit12-fill-1" offset="15%" stop-color="rgba(152,152,151,0.81)"/><stop id="eCfH4zWoRit12-fill-2" offset="44%" stop-color="rgba(106,106,105,0.47)"/><stop id="eCfH4zWoRit12-fill-3" offset="69%" stop-color="rgba(73,73,72,0.21)"/><stop id="eCfH4zWoRit12-fill-4" offset="89%" stop-color="rgba(52,52,51,0.06)"/><stop id="eCfH4zWoRit12-fill-5" offset="100%" stop-color="rgba(45,45,44,0)"/></radialGradient><linearGradient id="eCfH4zWoRit13-fill" x1="202.66" y1="71.5193" x2="202.66" y2="124.099" spreadMethod="pad" gradientUnits="userSpaceOnUse" gradientTransform="translate(0 0)"><stop id="eCfH4zWoRit13-fill-0" offset="0%" stop-color="#fff"/><stop id="eCfH4zWoRit13-fill-1" offset="21%" stop-color="#fff"/><stop id="eCfH4zWoRit13-fill-2" offset="40%" stop-color="rgba(255,255,255,0.45)"/><stop id="eCfH4zWoRit13-fill-3" offset="59%" stop-color="rgba(255,255,255,0.41)"/><stop id="eCfH4zWoRit13-fill-4" offset="77%" stop-color="rgba(255,255,255,0.08)"/><stop id="eCfH4zWoRit13-fill-5" offset="93%" stop-color="rgba(255,255,255,0.02)"/></linearGradient><linearGradient id="eCfH4zWoRit13-stroke" x1="202.66" y1="30.5693" x2="202.66" y2="124.789" spreadMethod="pad" gradientUnits="userSpaceOnUse" gradientTransform="translate(0 0)"><stop id="eCfH4zWoRit13-stroke-0" offset="0%" stop-color="rgba(255,255,255,0.45)"/><stop id="eCfH4zWoRit13-stroke-1" offset="2%" stop-color="rgba(255,255,255,0.42)"/><stop id="eCfH4zWoRit13-stroke-2" offset="9%" stop-color="rgba(255,255,255,0.31)"/><stop id="eCfH4zWoRit13-stroke-3" offset="17%" stop-color="rgba(255,255,255,0.23)"/><stop id="eCfH4zWoRit13-stroke-4" offset="26%" stop-color="rgba(255,255,255,0.16)"/><stop id="eCfH4zWoRit13-stroke-5" offset="38%" stop-color="rgba(255,255,255,0.11)"/><stop id="eCfH4zWoRit13-stroke-6" offset="54%" stop-color="#fd4507"/><stop id="eCfH4zWoRit13-stroke-7" offset="100%" stop-color="#fd4507"/></linearGradient><linearGradient id="eCfH4zWoRit17-fill" x1="0" y1="0.5" x2="1" y2="0.5" spreadMethod="pad" gradientUnits="objectBoundingBox" gradientTransform="translate(0 0)"><stop id="eCfH4zWoRit17-fill-0" offset="0%" stop-color="#f34d15"/><stop id="eCfH4zWoRit17-fill-1" offset="100%" stop-color="#fff"/></linearGradient><linearGradient id="eCfH4zWoRit18-fill" x1="0" y1="0.5" x2="1" y2="0.5" spreadMethod="pad" gradientUnits="objectBoundingBox" gradientTransform="translate(0 0)"><stop id="eCfH4zWoRit18-fill-0" offset="0%" stop-color="#f34d15"/><stop id="eCfH4zWoRit18-fill-1" offset="100%" stop-color="#fff"/></linearGradient><linearGradient id="eCfH4zWoRit19-fill" x1="0.50148" y1="1.19491" x2="0.50148" y2="-0.21472" spreadMethod="pad" gradientUnits="objectBoundingBox" gradientTransform="translate(0 0)"><stop id="eCfH4zWoRit19-fill-0" offset="0%" stop-color="#fff"/><stop id="eCfH4zWoRit19-fill-1" offset="100%" stop-color="rgba(255,255,255,0)"/></linearGradient></defs><g><path d="M50.7302,0.709351C23.116,0.709351,0.730225,23.0951,0.730225,50.7094v216.9996c0,27.615,22.385775,50,49.999975,50h259.9998c27.614,0,50-22.385,50-50v-216.9996c0-27.6143-22.386-50.000049-50-50.000049h-259.9998ZM184.23,153.709c28.443,0,51.5-23.057,51.5-51.5c0-28.4423-23.057-51.4996-51.5-51.4996-28.442,0-51.5,23.0573-51.5,51.4996c0,28.443,23.058,51.5,51.5,51.5Z" clip-rule="evenodd" fill="#fff" fill-opacity="0.6" fill-rule="evenodd"/></g><g transform="translate(.140823 2.499997)" mask="url(#eCfH4zWoRit7)"><g><path d="M256.72,66.7094h-77.78c-2.612,0-4.73,2.1176-4.73,4.73v45.2696c0,2.613,2.118,4.73,4.73,4.73h77.78c2.613,0,4.73-2.117,4.73-4.73v-45.2696c0-2.6124-2.117-4.73-4.73-4.73Z" fill="url(#eCfH4zWoRit6-fill)" fill-opacity="0.9"/></g><mask id="eCfH4zWoRit7" mask-type="luminance" x="-150%" y="-150%" height="400%" width="400%"><path d="M255.95,66.7094h-76.23c-3.04,0-5.51,2.46-5.51,5.51v5.87h66.57c3.04,0,5.51,2.46,5.51,5.5099v37.8397h9.67c3.04,0,5.51-2.46,5.51-5.51v-43.7096c0-3.04-2.46-5.51-5.51-5.51h-.01Z" fill="#fff"/></mask></g><g><path d="M241.55,78.0894h-77.78c-2.612,0-4.73,2.1176-4.73,4.73v45.2696c0,2.613,2.118,4.73,4.73,4.73h77.78c2.613,0,4.73-2.117,4.73-4.73v-45.2696c0-2.6124-2.117-4.73-4.73-4.73Z" fill="url(#eCfH4zWoRit10-fill)" fill-opacity="0.5"/></g><path style="mix-blend-mode:color-dodge" d="M156.73,78.4393c.02,1.01,9.13,1.68,20.35,1.49s20.31-1.17,20.29-2.18-9.13-1.68-20.35-1.49-20.31,1.17-20.29,2.18Z" fill="url(#eCfH4zWoRit11-fill)"/><path style="mix-blend-mode:color-dodge" d="M206.82,133.159c.02,1.01,9.13,1.68,20.35,1.49s20.31-1.17,20.29-2.18-9.13-1.68-20.35-1.49-20.31,1.17-20.29,2.18Z" fill="url(#eCfH4zWoRit12-fill)"/><path id="eCfH4zWoRit13" d="M202.66,123.939l42.860815-43.982191c-1-1.02-3.210815-1.877509-4.750815-1.877509h-76.22c-1.54,0-3.57127.493024-4.255357,1.357695L202.66,123.939Z" transform="matrix(1 0 0 1.000001 0.04525 0.083268)" fill="url(#eCfH4zWoRit13-fill)" stroke="url(#eCfH4zWoRit13-stroke)" stroke-width="1.16" stroke-opacity="0.4" stroke-linecap="round" stroke-linejoin="bevel" stroke-miterlimit="10"/><g transform="translate(.000001 0.000001)"><path id="eCfH4zWoRit15" d="M170.990289,89.670233l15.869299,17.038616l16.704524,17.372707l16.704525-17.873843l16.370435-17.038617-65.648783.501137Z" transform="translate(-.610131-.028658)" opacity="0" fill="#fff" stroke-width="0.722"/><g id="eCfH4zWoRit16" transform="translate(0-29.999999)" opacity="0"><rect width="52.058212" height="4.004478" rx="2" ry="2" transform="translate(177.125959 96.567586)" fill="url(#eCfH4zWoRit17-fill)" stroke-width="0"/><rect width="52.058212" height="4.004478" rx="2" ry="2" transform="matrix(.804184 0 0 1 177.514123 104.735338)" fill="url(#eCfH4zWoRit18-fill)" stroke-width="0"/></g></g><path d="M160.62,79.739303l42.04,44.199694L244.7,79.95681q1.58-.154388,1.58,7.021131c0,7.175519,0,37.7202,0,41.111059s-1.743802,4.380021-4.30374,4.72501-73.47626-.000001-78.20626-.000001-4.73-3.799277-4.73-7.591777-.000001-37.173055-.000001-41.327993q0-4.154938,1.580001-4.154936Z" transform="translate(.163831 0.000002)" fill="url(#eCfH4zWoRit19-fill)" stroke-width="0.722"/>
<script><![CDATA[
(function(s,i,u,o,c,w,d,t,n,x,e,p,a,b){(a=Array.from(d.querySelectorAll('svg#' + i.root)).filter(n=> !n.svgatorPlayer)[0]||{}).svgatorPlayer={ready:(function(a){b=[];return function(c){return c?(b.push(c),a.svgatorPlayer):b}})(a)};w[o]=w[o]||{};w[o][s]=w[o][s]||[];w[o][s].push(i);e=d.createElementNS(n,t);e.async=true;e.setAttributeNS(x,'href',[u,s,'.','j','s','?','v','=',c].join(''));e.setAttributeNS(null,'src',[u,s,'.','j','s','?','v','=',c].join(''));p=d.getElementsByTagName(t)[0];p.parentNode.insertBefore(e,p);})('91c80d77',{"root":"eCfH4zWoRit1","version":"2022-05-04","animations":[{"elements":{"eCfH4zWoRit13":{"transform":{"data":{"o":{"x":202.70525,"y":78.177645,"type":"corner"},"t":{"x":-202.66,"y":-78.094299}},"keys":{"s":[{"t":1200,"v":{"x":1,"y":1.000001}},{"t":1500,"v":{"x":1,"y":-0.040626}},{"t":1800,"v":{"x":1,"y":-1}},{"t":3000,"v":{"x":1,"y":-1}},{"t":3300,"v":{"x":1,"y":0.040626}},{"t":3600,"v":{"x":1,"y":1}}]}}},"eCfH4zWoRit15":{"d":[{"t":1500,"v":["M",170.990289,89.670233,"L",186.859588,106.708849,"L",203.564112,124.081556,"L",220.268637,106.207713,"L",236.639072,89.169096,"L",170.990289,89.670233,"Z"]},{"t":1800,"v":["M",170.990289,89.670233,"L",170.8351,132.45138,"L",236.506668,132.45138,"L",236.506668,108.794831,"L",236.639072,89.169096,"L",170.990289,89.670233,"Z"]},{"t":2600,"v":["M",170.990289,89.670233,"L",170.8351,132.45138,"L",236.506668,132.45138,"L",236.506668,108.794831,"L",236.639072,89.169096,"L",170.990289,89.670233,"Z"]},{"t":2800,"v":["M",170.990289,89.670233,"L",186.859588,106.708849,"L",203.564112,124.081556,"L",220.268637,106.207713,"L",236.639072,89.169096,"L",170.990289,89.670233,"Z"]}],"transform":{"data":{"t":{"x":-203.81468,"y":-106.625326}},"keys":{"o":[{"t":1500,"v":{"x":203.204549,"y":106.596668,"type":"corner"}},{"t":1800,"v":{"x":203.204549,"y":76.596668,"type":"corner"}},{"t":2000,"v":{"x":203.204549,"y":96.596668,"type":"corner"}},{"t":2400,"v":{"x":203.155083,"y":92.653706,"type":"corner"}},{"t":2600,"v":{"x":203.155083,"y":72.653706,"type":"corner"}},{"t":2800,"v":{"x":203.204549,"y":106.596668,"type":"corner"}}]}},"opacity":[{"t":1200,"v":0},{"t":1500,"v":1},{"t":2600,"v":1}]},"eCfH4zWoRit16":{"transform":{"data":{"t":{"x":-203.155083,"y":-102.653705}},"keys":{"o":[{"t":1800,"v":{"x":203.155083,"y":72.653706,"type":"corner"}},{"t":2000,"v":{"x":203.155083,"y":92.653706,"type":"corner"}},{"t":2400,"v":{"x":203.155083,"y":92.653706,"type":"corner"}},{"t":2600,"v":{"x":203.155083,"y":72.653706,"type":"corner"}},{"t":2800,"v":{"x":203.204549,"y":106.596668,"type":"corner"}}]}},"opacity":[{"t":1500,"v":0},{"t":1700,"v":0},{"t":1800,"v":1},{"t":2600,"v":1},{"t":2800,"v":0}]}},"s":"MDFA1ZDhlVTM1NVzc4ODg1NzQ4JNzdjODI4MTMK1NGQ0ODQ2NDVM0MzNmMzU3NVzdjODU3ODc2BODc3YzgyODERzNTRkNDQzZjPM1N2M4N1g3OVDg1RTc0ODc3SYzgyRzgxODYPzNTRkNDMzZjRM1Nzk3YzdmNV2YzNTRkNDQzEZjM1NzQ3ZjgO3Nzg4NTgxRzFc0ODc3ODM1NCGQ3OUY3NDdmLODY3ODNmMzUU4NjgzNzg3ODVc3MzU0ZDQ0MA2ZPMzVZNzk4WMzg2MzU0ZDQK0TjQzNDM5MAN|"}],"options":"MDLAxMDgyMjk3YETdiNjg3OTdiOMjk0MTI5NzMO3NjY4NmIyOTCg0"},'https://cdn.svgator.com/ply/','__SVGATOR_PLAYER__','2022-05-04',window,document,'script','http://www.w3.org/2000/svg','http://www.w3.org/1999/xlink')
]]></script>
</svg>
