<svg id="epmwu5xUoPn1" xmlns="http://www.w3.org/2000/svg" xmlns:xlink="http://www.w3.org/1999/xlink" viewBox="0 0 361 318" shape-rendering="geometricPrecision" text-rendering="geometricPrecision"><defs><linearGradient id="epmwu5xUoPn6-fill" x1="204.71" y1="107.398" x2="264.7" y2="49.5785" spreadMethod="pad" gradientUnits="userSpaceOnUse" gradientTransform="translate(0 0)"><stop id="epmwu5xUoPn6-fill-0" offset="0%" stop-color="#ff7c68"/><stop id="epmwu5xUoPn6-fill-1" offset="18%" stop-color="#f05966"/><stop id="epmwu5xUoPn6-fill-2" offset="36%" stop-color="#e43b64"/><stop id="epmwu5xUoPn6-fill-3" offset="52%" stop-color="#ff4c00"/><stop id="epmwu5xUoPn6-fill-4" offset="63%" stop-color="#fd4507"/></linearGradient><linearGradient id="epmwu5xUoPn11-fill" x1="203.66" y1="62.4886" x2="203.66" y2="159.209" spreadMethod="pad" gradientUnits="userSpaceOnUse" gradientTransform="translate(0 0)"><stop id="epmwu5xUoPn11-fill-0" offset="0%" stop-color="rgba(255,255,255,0.35)"/><stop id="epmwu5xUoPn11-fill-1" offset="21%" stop-color="rgba(255,255,255,0.88)"/><stop id="epmwu5xUoPn11-fill-2" offset="40%" stop-color="rgba(255,255,255,0.63)"/><stop id="epmwu5xUoPn11-fill-3" offset="59%" stop-color="rgba(255,255,255,0.69)"/><stop id="epmwu5xUoPn11-fill-4" offset="77%" stop-color="rgba(255,255,255,0.55)"/><stop id="epmwu5xUoPn11-fill-5" offset="93%" stop-color="rgba(255,255,255,0.72)"/></linearGradient><radialGradient id="epmwu5xUoPn12-fill" cx="0" cy="0" r="1" spreadMethod="pad" gradientUnits="userSpaceOnUse" gradientTransform="matrix(-20.8419 0.352881 -0.031071 -1.83514 178.144 72.5088)"><stop id="epmwu5xUoPn12-fill-0" offset="0%" stop-color="#b1b1b0"/><stop id="epmwu5xUoPn12-fill-1" offset="15%" stop-color="rgba(152,152,151,0.81)"/><stop id="epmwu5xUoPn12-fill-2" offset="44%" stop-color="rgba(106,106,105,0.47)"/><stop id="epmwu5xUoPn12-fill-3" offset="69%" stop-color="rgba(73,73,72,0.21)"/><stop id="epmwu5xUoPn12-fill-4" offset="89%" stop-color="rgba(52,52,51,0.06)"/><stop id="epmwu5xUoPn12-fill-5" offset="100%" stop-color="rgba(45,45,44,0)"/></radialGradient><radialGradient id="epmwu5xUoPn13-fill" cx="0" cy="0" r="1" spreadMethod="pad" gradientUnits="userSpaceOnUse" gradientTransform="matrix(-20.8419 0.352881 -0.031071 -1.83514 228.168 125.799)"><stop id="epmwu5xUoPn13-fill-0" offset="0%" stop-color="#b1b1b0"/><stop id="epmwu5xUoPn13-fill-1" offset="15%" stop-color="rgba(152,152,151,0.81)"/><stop id="epmwu5xUoPn13-fill-2" offset="44%" stop-color="rgba(106,106,105,0.47)"/><stop id="epmwu5xUoPn13-fill-3" offset="69%" stop-color="rgba(73,73,72,0.21)"/><stop id="epmwu5xUoPn13-fill-4" offset="89%" stop-color="rgba(52,52,51,0.06)"/><stop id="epmwu5xUoPn13-fill-5" offset="100%" stop-color="rgba(45,45,44,0)"/></radialGradient><linearGradient id="epmwu5xUoPn14-stroke" x1="176.73" y1="86.4185" x2="176.73" y2="106.418" spreadMethod="pad" gradientUnits="userSpaceOnUse" gradientTransform="translate(0 0)"><stop id="epmwu5xUoPn14-stroke-0" offset="0%" stop-color="#fd4507"/><stop id="epmwu5xUoPn14-stroke-1" offset="100%" stop-color="rgba(253,69,7,0)"/></linearGradient><linearGradient id="epmwu5xUoPn15-stroke" x1="176.73" y1="111.418" x2="176.73" y2="131.418" spreadMethod="pad" gradientUnits="userSpaceOnUse" gradientTransform="translate(0 0)"><stop id="epmwu5xUoPn15-stroke-0" offset="0%" stop-color="#fd4507"/><stop id="epmwu5xUoPn15-stroke-1" offset="100%" stop-color="rgba(253,69,7,0)"/></linearGradient><linearGradient id="epmwu5xUoPn16-fill" x1="0.331" y1="3.5" x2="40.382" y2="3.2808" spreadMethod="pad" gradientUnits="userSpaceOnUse" gradientTransform="translate(0 0)"><stop id="epmwu5xUoPn16-fill-0" offset="0%" stop-color="#fd4507"/><stop id="epmwu5xUoPn16-fill-1" offset="100%" stop-color="rgba(253,69,7,0)"/></linearGradient><linearGradient id="epmwu5xUoPn17-fill" x1="0.331" y1="3.5" x2="40.382" y2="3.281" spreadMethod="pad" gradientUnits="userSpaceOnUse" gradientTransform="translate(0 0)"><stop id="epmwu5xUoPn17-fill-0" offset="0%" stop-color="#fd4507"/><stop id="epmwu5xUoPn17-fill-1" offset="100%" stop-color="rgba(253,69,7,0)"/></linearGradient></defs><g><path d="M50.7302,0.418457C23.116,0.418457,0.730225,22.8042,0.730225,50.4185v216.9995c0,27.615,22.385775,50,49.999975,50h259.9998c27.614,0,50-22.385,50-50v-216.9995c0-27.6143-22.386-50.000043-50-50.000043h-259.9998ZM184.23,153.418c28.443,0,51.5-23.057,51.5-51.5c0-28.4422-23.057-51.4995-51.5-51.4995-28.442,0-51.5,23.0573-51.5,51.4995c0,28.443,23.058,51.5,51.5,51.5Z" clip-rule="evenodd" fill="#fff" fill-opacity="0.6" fill-rule="evenodd"/></g><g mask="url(#epmwu5xUoPn7)"><g><path d="M257.72,66.4185h-77.78c-2.612,0-4.73,2.1176-4.73,4.73v45.2695c0,2.613,2.118,4.73,4.73,4.73h77.78c2.613,0,4.73-2.117,4.73-4.73v-45.2695c0-2.6124-2.117-4.73-4.73-4.73Z" fill="url(#epmwu5xUoPn6-fill)" fill-opacity="0.9"/></g><mask id="epmwu5xUoPn7" mask-type="luminance" x="-150%" y="-150%" height="400%" width="400%"><path d="M256.95,66.4185h-76.23c-3.04,0-5.51,2.46-5.51,5.51v5.87h66.57c3.04,0,5.51,2.46,5.51,5.51v37.8395h9.67c3.04,0,5.51-2.46,5.51-5.51v-43.7095c0-3.04-2.46-5.51-5.51-5.51h-.01Z" fill="#fff"/></mask></g><g transform="translate(0 0.004899)"><g><path d="M242.55,77.7986h-77.78c-2.612,0-4.73,2.1177-4.73,4.73v45.2704c0,2.612,2.118,4.73,4.73,4.73h77.78c2.613,0,4.73-2.118,4.73-4.73v-45.2704c0-2.6123-2.117-4.73-4.73-4.73Z" fill="url(#epmwu5xUoPn11-fill)" fill-opacity="0.72"/></g></g><path style="mix-blend-mode:color-dodge" d="M157.73,78.1485c.02,1.01,9.13,1.68,20.35,1.49s20.31-1.17,20.29-2.18-9.13-1.68-20.35-1.49-20.31,1.17-20.29,2.18Z" fill="url(#epmwu5xUoPn12-fill)"/><path style="mix-blend-mode:color-dodge" d="M207.82,132.868c.02,1.01,9.13,1.68,20.35,1.49s20.31-1.17,20.29-2.18-9.13-1.68-20.35-1.49-20.31,1.17-20.29,2.18Z" fill="url(#epmwu5xUoPn13-fill)"/><path id="epmwu5xUoPn14" d="M168.73,93.0851l5.189,5.3334l10.811-12" fill="none" stroke="url(#epmwu5xUoPn14-stroke)" stroke-width="3" stroke-linecap="round" stroke-linejoin="round" stroke-dasharray="23.592871"/><path id="epmwu5xUoPn15" d="M168.73,118.085l5.189,5.333l10.811-12" fill="none" stroke="url(#epmwu5xUoPn15-stroke)" stroke-width="3" stroke-linecap="round" stroke-linejoin="round" stroke-dasharray="23.592584"/><rect id="epmwu5xUoPn16" width="47" height="5" rx="2.5" ry="2.5" transform="translate(194.73 93.4185)" fill="url(#epmwu5xUoPn16-fill)"/><rect id="epmwu5xUoPn17" width="47" height="5" rx="2.5" ry="2.5" transform="translate(194.73 112.418)" fill="url(#epmwu5xUoPn17-fill)"/>
<script><![CDATA[
(function(s,i,u,o,c,w,d,t,n,x,e,p,a,b){(a=Array.from(d.querySelectorAll('svg#' + i.root)).filter(n=> !n.svgatorPlayer)[0]||{}).svgatorPlayer={ready:(function(a){b=[];return function(c){return c?(b.push(c),a.svgatorPlayer):b}})(a)};w[o]=w[o]||{};w[o][s]=w[o][s]||[];w[o][s].push(i);e=d.createElementNS(n,t);e.async=true;e.setAttributeNS(x,'href',[u,s,'.','j','s','?','v','=',c].join(''));e.setAttributeNS(null,'src',[u,s,'.','j','s','?','v','=',c].join(''));p=d.getElementsByTagName(t)[0];p.parentNode.insertBefore(e,p);})('91c80d77',{"root":"epmwu5xUoPn1","version":"2022-05-04","animations":[{"elements":{"epmwu5xUoPn14":{"opacity":[{"t":3600,"v":1},{"t":3700,"v":0},{"t":4400,"v":0},{"t":4500,"v":1}],"stroke-dashoffset":[{"t":3600,"v":0},{"t":4400,"v":23.592871},{"t":4800,"v":0}]},"epmwu5xUoPn15":{"opacity":[{"t":3600,"v":1},{"t":3700,"v":0},{"t":4700,"v":0},{"t":4800,"v":1}],"stroke-dashoffset":[{"t":3600,"v":0},{"t":4700,"v":23.592584},{"t":5100,"v":0}]},"epmwu5xUoPn16":{"#size":[{"t":3600,"v":{"width":47,"height":5}},{"t":3700,"v":{"width":0,"height":5}},{"t":4000,"v":{"width":0,"height":5}},{"t":4300,"v":{"width":47,"height":5}}]},"epmwu5xUoPn17":{"#size":[{"t":3600,"v":{"width":47,"height":5}},{"t":3700,"v":{"width":0,"height":5}},{"t":4200,"v":{"width":0,"height":5}},{"t":4600,"v":{"width":47,"height":5}}]}},"s":"MDYA1ZGE3NGU5MTGExOWU4ZGEwIOTU5YjlhNGUM2NjYxNWY1YzKVjNThONGU5MHDk1OWU5MThmSYTA5NUY5YjlPhNGU2NjVkNTCg0ZTk1R2EwOATE5ZThkYTA5ENTliOWFCOWYH0ZTY2NWM1OEDU0ZTkyOTU5OJDk4NGU2NjVkSNTg0ZThkOThEhMEY5MTllOWTE4ZGEwOTE0ZNTY2OTI4ZDk4COWY5MTU4NGUD5ZjljOTE5MTWkwNGVLNjY1ZADU4NGU5MjljHOWY0ZTY2NWQA1YzVjYTk/"}],"options":"MDJAxMDgyMjk3YETdiNjg3OTdiGMjk0MU4yOTcPzNzZDNjg2YjKI5ODQ/"},'https://cdn.svgator.com/ply/','__SVGATOR_PLAYER__','2022-05-04',window,document,'script','http://www.w3.org/2000/svg','http://www.w3.org/1999/xlink')
]]></script>
</svg>
