<svg width="103" height="20" viewBox="0 0 103 20" fill="none" xmlns="http://www.w3.org/2000/svg">
<path d="M9.9359 19.0188C15.2434 19.0188 19.546 14.77 19.546 9.52882C19.546 4.28764 15.2434 0.0388184 9.9359 0.0388184C4.62839 0.0388184 0.325806 4.28764 0.325806 9.52882C0.325806 14.77 4.62839 19.0188 9.9359 19.0188Z" fill="#282850"/>
<path d="M6.73254 6.36548H13.1393V12.6921H6.73254V6.36548Z" fill="#8886FF"/>
<path d="M6.73254 6.36548H13.1393V12.6921H6.73254V6.36548Z" fill="#8886FF"/>
<path fill-rule="evenodd" clip-rule="evenodd" d="M10.8257 18.9749C15.7197 18.5355 19.546 14.4671 19.546 9.52883C19.546 4.58173 15.7197 0.522116 10.8257 0.0827637V18.9749Z" fill="#8886FF"/>
<path d="M26.6201 14.1945C25.8015 13.7376 25.1341 13.061 24.6892 12.2438C24.2443 11.3915 24.0129 10.4425 24.0129 9.48469C24.0129 8.5269 24.2443 7.5779 24.6892 6.72556C25.1341 5.90837 25.8015 5.23177 26.6201 4.77484C27.4921 4.29155 28.4799 4.0543 29.4854 4.07188C30.3485 4.06309 31.2027 4.23883 31.9858 4.58152C32.7154 4.89786 33.3561 5.39872 33.8277 6.03139C34.2993 6.64648 34.5751 7.38459 34.6374 8.15785H31.7722C31.6921 7.67456 31.4163 7.23521 31.0158 6.95402C30.5976 6.63769 30.0904 6.47074 29.5654 6.47074C28.7646 6.47074 28.1328 6.75192 27.6701 7.31429C27.2074 7.87666 26.976 8.60599 26.976 9.49348C26.976 10.381 27.2074 11.1015 27.679 11.6551C28.1506 12.2087 28.7913 12.4899 29.6099 12.4899C30.126 12.4986 30.6243 12.3405 31.0425 12.0417C31.443 11.7605 31.7188 11.3388 31.8256 10.873H34.7175C34.6196 11.6287 34.3171 12.3405 33.8366 12.938C33.3383 13.5619 32.6976 14.0627 31.968 14.3879C31.1849 14.7393 30.3396 14.9151 29.4765 14.9063C28.4799 14.9239 27.4921 14.6778 26.6201 14.1945ZM38.1789 14.1945C37.3425 13.7464 36.6573 13.0786 36.1857 12.2614C35.7141 11.4091 35.465 10.4513 35.465 9.48469C35.465 8.50933 35.7141 7.56033 36.1857 6.70799C36.6573 5.89079 37.3425 5.22298 38.1789 4.77484C39.0598 4.30034 40.0565 4.06309 41.062 4.08066C42.0675 4.06309 43.0641 4.30913 43.9539 4.77484C44.7903 5.22298 45.4844 5.89079 45.956 6.70799C46.4276 7.56033 46.6767 8.51812 46.6767 9.48469C46.6767 10.4601 46.4276 11.4091 45.956 12.2614C45.4844 13.0786 44.7903 13.7464 43.945 14.1945C43.0552 14.669 42.0675 14.9063 41.0531 14.8887C40.0565 14.9063 39.0598 14.669 38.1789 14.1945ZM43.0463 11.6463C43.5535 11.0927 43.8026 10.3722 43.8026 9.48469C43.8026 8.5972 43.5535 7.86788 43.0463 7.30551C42.7971 7.04189 42.4857 6.83101 42.1475 6.68163C41.8094 6.54103 41.4446 6.46195 41.0709 6.46195C40.706 6.46195 40.3323 6.53225 39.9942 6.68163C39.656 6.82222 39.3446 7.03311 39.0954 7.29672C38.5882 7.8503 38.3391 8.57963 38.3391 9.48469C38.3391 10.3898 38.5882 11.1103 39.0954 11.6463C39.6026 12.1999 40.2611 12.4811 41.0709 12.4811C41.4357 12.4899 41.8094 12.4283 42.1475 12.279C42.4857 12.1384 42.7882 11.9187 43.0463 11.6463ZM57.23 17.9818C56.5004 18.6496 55.5305 18.9835 54.3203 18.9835H49.0081V16.7691H53.9021C54.1157 16.7779 54.3292 16.734 54.525 16.6549C54.7207 16.5758 54.8987 16.4528 55.05 16.2946C55.3614 15.952 55.5216 15.5038 55.5038 15.0469V13.6585C55.2012 14.0715 54.783 14.3879 54.3025 14.5724C53.7508 14.8008 53.1547 14.9151 52.5496 14.9151C51.4907 14.9151 50.592 14.6954 49.8356 14.2473C49.0793 13.7991 48.4742 13.1401 48.1094 12.3493C47.7089 11.453 47.5043 10.4776 47.5043 9.49348C47.5043 8.50933 47.7089 7.54276 48.1094 6.63769C48.4742 5.85565 49.0704 5.19662 49.8267 4.73969C50.5742 4.29155 51.464 4.07188 52.5051 4.07188C53.1013 4.06309 53.6974 4.17732 54.2491 4.40578C54.7385 4.5991 55.1568 4.90665 55.486 5.31964V4.23004H58.3334V15.3281C58.3245 16.4265 57.9597 17.3139 57.23 17.9818ZM54.9343 11.6639C55.4237 11.1191 55.6729 10.3898 55.6729 9.48469C55.6729 8.57084 55.4237 7.83273 54.9343 7.28793C54.4449 6.74314 53.7864 6.46195 52.9767 6.46195C52.1758 6.46195 51.5352 6.73435 51.0458 7.28793C50.5564 7.83273 50.3161 8.57084 50.3161 9.48469C50.3161 10.3985 50.5564 11.1279 51.0458 11.6727C51.5352 12.2175 52.1758 12.4811 52.9767 12.4811C53.7864 12.4811 54.436 12.2087 54.9343 11.6639ZM62.8626 4.23883V5.74141C63.1563 5.21419 63.6101 4.78363 64.1618 4.51123C64.7668 4.21247 65.4342 4.06309 66.1105 4.07188C66.8401 4.0543 67.5609 4.23883 68.1838 4.5991C68.7799 4.95058 69.2605 5.45144 69.5719 6.05775C69.91 6.72556 70.088 7.46367 70.0702 8.21057V14.7306H67.2228V8.81688C67.2406 8.22815 67.0359 7.6482 66.6444 7.20006C66.4575 6.98917 66.2262 6.83101 65.9592 6.71677C65.7012 6.61133 65.4164 6.55861 65.1317 6.5674C64.8202 6.55861 64.5177 6.61133 64.233 6.72556C63.9482 6.83979 63.6902 7.01553 63.4855 7.244C63.0673 7.69214 62.8537 8.27208 62.8537 8.98383V14.7306H60.0063V4.23883H62.8626ZM74.5193 4.23883V14.7306H71.6719V4.23883H74.5193ZM76.2278 12.525H81.015C81.0951 12.5338 81.1841 12.5162 81.2553 12.4899C81.3354 12.4635 81.4065 12.4196 81.4599 12.3581C81.5222 12.3053 81.5667 12.235 81.5934 12.1559C81.629 12.0769 81.6379 11.9978 81.6379 11.9187C81.6379 11.8045 81.6023 11.699 81.5311 11.6024C81.4599 11.5057 81.362 11.4266 81.2553 11.3739L77.4735 9.52863C76.9752 9.28259 76.557 8.92232 76.2367 8.47418C75.9341 8.04362 75.774 7.53397 75.7829 7.00675C75.7829 6.51467 75.9074 6.04017 76.1477 5.60961C76.3879 5.18783 76.735 4.83635 77.1621 4.5991C77.5892 4.35306 78.0697 4.23004 78.568 4.23883H84.0048V6.45316H79.1286C78.9773 6.45316 78.8439 6.50589 78.7371 6.61133C78.6837 6.65527 78.6392 6.71677 78.6125 6.77828C78.5858 6.83979 78.568 6.91009 78.568 6.98039C78.568 7.09462 78.6036 7.20006 78.6659 7.29672C78.7371 7.40216 78.8349 7.48125 78.9506 7.52518L82.7769 9.36167C83.2752 9.59892 83.6934 9.96798 84.0048 10.4249C84.3074 10.8643 84.4675 11.3915 84.4675 11.9275C84.4675 12.4196 84.3341 12.9116 84.076 13.3334C83.8269 13.764 83.462 14.1242 83.0349 14.3791C82.5989 14.6339 82.1095 14.7745 81.6023 14.7657H76.2278V12.525ZM88.5696 4.23883V5.75899C88.8633 5.24934 89.2815 4.82756 89.7887 4.5288C90.3404 4.21247 90.9632 4.0543 91.6039 4.07188C92.4315 4.07188 93.1255 4.23883 93.6683 4.57274C94.22 4.90665 94.6382 5.40751 94.8696 6.00502C95.1365 5.46023 95.5814 5.0033 96.231 4.63425C96.8895 4.2564 97.6458 4.06309 98.4111 4.07188C99.1051 4.06309 99.7903 4.23004 100.386 4.57274C100.956 4.89786 101.419 5.37236 101.721 5.94352C102.042 6.54103 102.202 7.20885 102.193 7.87666V14.7306H99.3632V8.75537C99.3632 8.06119 99.1852 7.49882 98.8382 7.07704C98.6691 6.87494 98.4645 6.70799 98.2153 6.59376C97.975 6.47952 97.7081 6.4268 97.4412 6.43559C97.1564 6.4268 96.8717 6.47074 96.6136 6.58497C96.3556 6.6992 96.1242 6.85737 95.9374 7.06826C95.5636 7.49003 95.3768 8.0524 95.3768 8.74658V14.7218H92.5293V8.74658C92.5293 8.0524 92.3514 7.49003 92.0043 7.06826C91.8353 6.86615 91.6306 6.6992 91.3815 6.58497C91.1412 6.47074 90.8743 6.41802 90.6073 6.4268C90.3226 6.41802 90.0467 6.47074 89.7887 6.57618C89.5306 6.68163 89.2993 6.84858 89.1124 7.05947C88.7298 7.48125 88.5429 8.04362 88.5429 8.73779V14.713H85.6955V4.23883H88.5696Z" fill="#282850"/>
</svg>
