<svg width="70" height="17" viewBox="0 0 70 17" fill="none" xmlns="http://www.w3.org/2000/svg">
<path d="M42.5644 0.692834C42.7983 0.732439 42.876 0.97077 42.7594 1.12919C42.7465 1.1424 42.7378 1.1556 42.7306 1.1688L42.7105 1.20841C42.7033 1.22161 42.6946 1.23481 42.6817 1.24801L38.7885 5.73043L38.6725 5.84995C38.5157 6.04798 38.6725 6.28631 38.9446 6.32591H40.5012C40.7739 6.36552 40.8905 6.60385 40.7739 6.80188L40.6573 6.9207L37.8155 10.2136L37.6989 10.3324C37.5823 10.5311 37.7378 10.7687 37.9716 10.7687H39.0223C39.1652 10.7681 39.298 10.8434 39.3728 10.9675C39.4116 11.0856 39.4116 11.2051 39.2951 11.2843L39.2166 11.3642L32.5995 16.4414L32.4829 16.5609C32.4045 16.6005 32.3268 16.6005 32.2879 16.5609C32.2468 16.5171 32.2198 16.4616 32.2102 16.4018C32.2102 16.3622 32.249 16.283 32.249 16.283L34.0784 12.4753L34.1172 12.3557C34.2345 12.1174 34.1172 11.8798 33.8445 11.8402H32.2886C32.0554 11.8006 31.9381 11.6018 32.0158 11.4434C32.0554 11.4038 32.0943 11.3239 32.0943 11.3239L34.3511 7.47657C34.3511 7.47657 34.3907 7.43627 34.3907 7.39666C34.5072 7.15903 34.3518 6.9603 34.0791 6.9603H32.6002C32.432 6.96853 32.2832 6.85048 32.2497 6.68237C32.2497 6.60385 32.2497 6.52394 32.3274 6.44473L33.0284 5.21486L35.3248 1.12919L35.3636 1.04998C35.4809 0.851257 35.6752 0.732439 35.9479 0.732439L42.3708 0.692834H42.5644ZM25.5923 0.692834C29.1351 0.692834 31.0033 3.15257 31.0033 6.08758C31.0033 8.78565 29.4849 10.2532 28.2787 10.8479L31.0033 16.4018H25.8262V16.4421L23.8018 11.6408H22.0891V16.4407H17.5345V0.692834H25.5923ZM55.2935 0.692139V4.85702H48.4036V6.95961H55.138V11.1252H48.4036V16.4407L43.8101 16.4421V0.692139H55.2935ZM69.6187 0.692834V4.85771H65.5318V16.4421H60.9772V4.85702H56.9285V0.692834H69.6187ZM7.68613 0.692139C12.4739 0.692139 16.0167 3.50833 16.0167 8.54663C16.0167 13.5842 12.4739 16.4407 7.72568 16.4407H0.912842V0.692139H7.68613ZM7.725 4.85771H5.50632V12.2765H7.68613C9.98253 12.2765 11.3455 10.5311 11.3455 8.54732H11.3448C11.3448 6.40513 10.1775 4.85771 7.725 4.85771ZM24.8921 4.85771H22.128V7.99145H24.8921C25.6701 7.99145 26.3717 7.51618 26.3717 6.40513C26.3717 5.33437 25.6312 4.85771 24.8921 4.85771Z" fill="#111111"/>
</svg>
