<svg width="123" height="33" viewBox="0 0 123 33" fill="none" xmlns="http://www.w3.org/2000/svg">
<path d="M27.7419 11.8627C26.8245 11.3855 26.4622 11.0739 26.3161 10.8921C26.1345 10.6734 26.0503 10.466 26.0503 10.2397C26.0503 9.99164 26.1467 9.78427 26.3564 9.59016C26.5755 9.38469 26.8217 9.28906 27.1325 9.28906C27.6726 9.28906 28.253 9.5911 28.8597 10.1848L29.1873 10.5077L30.6617 8.96522L30.3332 8.64423C29.3043 7.63958 28.2502 7.1311 27.1989 7.1311C26.2768 7.1311 25.5008 7.43411 24.8904 8.03349C24.2744 8.6376 23.9627 9.40079 23.9627 10.306C23.9627 10.9982 24.1593 11.6241 24.544 12.1657C24.9119 12.6874 25.5962 13.2101 26.5726 13.7214C27.5622 14.2318 27.9347 14.5348 28.0695 14.6967C28.2465 14.9126 28.3279 15.1389 28.3279 15.4088C28.3279 15.7383 28.2006 16.01 27.9273 16.2648C27.6483 16.5214 27.3028 16.652 26.9003 16.652C26.2937 16.652 25.6955 16.3206 25.1226 15.6673L24.7799 15.2781L23.3691 16.8982L23.6013 17.2003C23.9926 17.7078 24.4906 18.1112 25.0842 18.3981C25.6777 18.684 26.3068 18.8289 26.9555 18.8289C27.9535 18.8289 28.7979 18.489 29.4672 17.8195C30.1403 17.1491 30.4792 16.3187 30.4792 15.3538C30.4792 14.6617 30.277 14.0282 29.8763 13.4667C29.4878 12.9412 28.7689 12.4015 27.741 11.8636" fill="#00379A"/>
<path d="M41.6849 9.56839C41.3703 8.82792 40.877 8.22949 40.217 7.79108C39.5579 7.35362 38.7959 7.1311 37.9506 7.1311C37.1052 7.1311 36.3619 7.32616 35.6664 7.7106C35.2985 7.91228 34.9446 8.17173 34.6095 8.4861V7.39528H32.3917V18.5647H34.6095V14.3445C34.6095 12.7187 34.7031 11.9924 34.7817 11.6743C34.954 10.9953 35.3181 10.4168 35.8648 9.95471C36.4013 9.50211 37.0154 9.27201 37.6903 9.27201C38.2707 9.27201 38.7398 9.4112 39.0824 9.68579C39.4241 9.95849 39.6628 10.3865 39.7911 10.9631C39.851 11.2103 39.9221 11.8002 39.9221 13.2177V18.5666H42.1399V12.8313C42.1399 11.3817 41.9854 10.2833 41.6839 9.57028" fill="#00379A"/>
<path d="M53.2389 13.0729C53.2389 13.7651 53.0863 14.3948 52.782 14.944C52.4825 15.4856 52.0443 15.9231 51.4836 16.2431C50.3724 16.8747 48.9916 16.8775 47.9272 16.2431C47.3833 15.9193 46.9423 15.46 46.6194 14.8777C46.2945 14.2935 46.1298 13.6723 46.1298 13.035C46.1298 12.3978 46.2936 11.7719 46.6147 11.1934C46.9358 10.6167 47.372 10.1631 47.9112 9.84689C48.4523 9.52873 49.0505 9.36871 49.6899 9.36871C50.6851 9.36871 51.5351 9.72379 52.2138 10.4245C52.8953 11.128 53.2407 12.019 53.2407 13.0748L53.2389 13.0729ZM53.1574 7.43612V8.55723C52.8148 8.23718 52.446 7.97205 52.0537 7.76279C51.316 7.37173 50.4857 7.17383 49.5832 7.17383C48.0245 7.17383 46.6708 7.74953 45.5624 8.8839C44.455 10.0173 43.8942 11.3998 43.8942 12.9943C43.8942 14.5889 44.4503 16.0168 45.5465 17.154C46.6456 18.2922 47.9908 18.8707 49.5458 18.8707C50.4192 18.8707 51.2374 18.6842 51.9779 18.3158C52.3917 18.1085 52.7867 17.8424 53.1574 17.5195V18.6065H55.3564V7.43517H53.1574V7.43612Z" fill="#00379A"/>
<path d="M60.539 10.609C60.6026 10.5493 60.6513 10.5058 60.6785 10.4764C61.3459 9.80129 62.1735 9.47082 63.2079 9.46609H63.2257C64.1544 9.46609 64.9623 9.82496 65.6944 10.5664L65.7252 10.5948C65.7468 10.6118 65.7833 10.6488 65.8338 10.6999C66.4451 11.3087 66.7428 12.0861 66.7428 13.0794C66.7428 14.0727 66.4049 14.8842 65.7065 15.5896C65.0082 16.2941 64.19 16.6397 63.1808 16.6454C62.1286 16.6454 61.3104 16.3433 60.6756 15.7212C60.348 15.4002 60.0784 14.9798 59.8743 14.4732C59.6815 13.9913 59.585 13.5254 59.5907 13.0822C59.5953 12.0587 59.9099 11.2481 60.5399 10.6099L60.539 10.609ZM67.2072 9.02958C66.0978 7.90846 64.7488 7.34033 63.1995 7.34033C61.8945 7.34033 60.7112 7.76738 59.6721 8.61011V7.43029H57.5367V26.9674H59.6721V17.5515C60.6635 18.3611 61.8477 18.7711 63.1995 18.7711C63.9587 18.7711 64.6908 18.6272 65.377 18.345C66.4255 17.9161 67.2793 17.2116 67.9177 16.2515C68.5552 15.2932 68.8791 14.2251 68.8791 13.0794C68.8791 11.5133 68.3174 10.1507 67.2072 9.02958Z" fill="#00379A"/>
<path d="M72.9223 16.2421V0.115723H70.6812V18.4171H77.867V16.2421H72.9223Z" fill="#00379A"/>
<path d="M99.8554 29.0695C99.1823 29.7503 98.4109 30.0799 97.5 30.0799C96.5891 30.0799 95.7747 29.7049 95.0145 28.9303C94.3414 28.2514 94.0156 27.4333 94.0156 26.4249C94.0156 25.4165 94.3433 24.5453 95.0145 23.8626L95.0875 23.7888C95.7634 23.1032 96.5536 22.7699 97.4991 22.7699C98.4446 22.7699 99.2478 23.1278 99.9761 23.8626C100.62 24.515 100.934 25.354 100.934 26.4249C100.934 27.4958 100.58 28.3338 99.8544 29.0686L99.8554 29.0695ZM94.0156 13.1798C94.0156 12.1392 94.3433 11.3003 95.0145 10.6176L95.0875 10.5437C95.7634 9.85817 96.5536 9.52487 97.4991 9.52487C98.4446 9.52487 99.2487 9.88279 99.9761 10.6176C100.62 11.269 100.934 12.107 100.934 13.1798C100.934 14.2527 100.58 15.0888 99.8544 15.8236C99.1813 16.5025 98.4099 16.8339 97.4991 16.8339C96.5882 16.8339 95.7737 16.458 95.0136 15.6834C94.3405 15.0054 94.0147 14.1854 94.0147 13.1798H94.0156ZM86.7736 15.8131C86.1005 16.4939 85.331 16.8235 84.4182 16.8235C83.5055 16.8235 82.6929 16.4476 81.9346 15.6739C81.2615 14.9931 80.9358 14.1741 80.9358 13.1685C80.9358 12.1629 81.2634 11.2899 81.9346 10.6062L82.0077 10.5324C82.6836 9.84681 83.4718 9.51446 84.4182 9.51446C85.3647 9.51446 86.1679 9.87143 86.8962 10.6062C87.5403 11.2577 87.853 12.0957 87.853 13.1685C87.853 14.2413 87.5 15.0784 86.7736 15.8122V15.8131ZM98.5663 20.7786V18.7722C99.6672 18.5724 100.649 18.0554 101.492 17.2249C102.569 16.1635 103.115 14.8019 103.115 13.1798C103.121 11.5522 102.575 10.1735 101.491 9.08173C100.407 7.99092 99.0662 7.43888 97.5065 7.43888C95.9469 7.43888 94.5895 8.00323 93.4905 9.11582C92.6601 9.95476 92.1405 10.9367 91.9337 12.0483H89.9453C89.7487 10.9007 89.2366 9.90268 88.4109 9.07131C87.3269 7.98145 85.9872 7.42847 84.4276 7.42847C82.868 7.42847 81.5106 7.99281 80.4106 9.1054C79.3106 10.2189 78.7508 11.5862 78.7508 13.1685C78.7508 13.909 78.8903 14.6399 79.1646 15.3416C79.4566 16.0953 79.8658 16.7269 80.3797 17.2174C81.5181 18.3072 82.8783 18.8593 84.4182 18.8593C85.9582 18.8593 87.3053 18.3053 88.4128 17.2136C89.2394 16.3993 89.7496 15.4088 89.9443 14.2593H91.9308C92.0011 14.6295 92.104 14.9941 92.2435 15.352C92.5356 16.1067 92.9447 16.7382 93.4586 17.2278C94.3133 18.0459 95.2926 18.561 96.3794 18.7665V20.79C95.2841 20.9992 94.3152 21.5266 93.4886 22.3618C92.3877 23.4753 91.8288 24.8436 91.8288 26.4249C91.8288 27.1625 91.9683 27.8944 92.2426 28.598C92.5365 29.3555 92.9456 29.9861 93.4577 30.4738C94.597 31.5636 95.9563 32.1157 97.4963 32.1157C99.0362 32.1157 100.382 31.5617 101.489 30.4709C102.566 29.4095 103.112 28.0488 103.112 26.4258C103.118 24.7972 102.572 23.4195 101.488 22.3287C100.659 21.4935 99.6765 20.9765 98.5635 20.7796" fill="#00379A"/>
<path d="M107.116 7.74121H104.81V18.4164H107.116V7.74121Z" fill="#00379A"/>
<path d="M105.958 6.88309C106.373 6.88309 106.749 6.72496 107.041 6.42764C107.34 6.12464 107.492 5.75819 107.492 5.33777C107.492 4.91736 107.335 4.53576 107.042 4.23844C106.753 3.94491 106.369 3.78394 105.962 3.78394C105.555 3.78394 105.173 3.94585 104.884 4.23844C104.59 4.53576 104.435 4.91546 104.435 5.33777C104.435 5.76009 104.586 6.12369 104.884 6.42764C105.178 6.72496 105.549 6.88309 105.958 6.88309Z" fill="#00379A"/>
<path d="M117.194 15.4477L116.962 15.6826C116.261 16.3899 115.436 16.7346 114.436 16.7346C113.436 16.7346 112.608 16.406 111.964 15.7299C111.316 15.0481 111.002 14.213 111.002 13.1733C111.002 12.1336 111.296 11.2852 111.875 10.6915C111.938 10.6404 111.984 10.5949 112 10.5732C112.656 9.91603 113.454 9.59693 114.437 9.59693C115.42 9.59693 116.245 9.92645 116.922 10.6082L117.159 10.8459L118.626 9.30244L118.387 9.07235C117.285 8.00994 115.959 7.47021 114.443 7.47021C112.928 7.47021 111.547 8.02982 110.455 9.13389C109.364 10.2389 108.811 11.5968 108.811 13.1695C108.811 14.7423 109.358 16.1181 110.44 17.2108C111.521 18.3054 112.867 18.8594 114.437 18.8594C116.007 18.8594 117.345 18.3064 118.469 17.2175L118.712 16.9817L117.196 15.4477H117.194Z" fill="#00379A"/>
<path d="M120.942 7.88477C121.65 7.88477 122.227 8.46805 122.227 9.18389C122.227 9.89974 121.65 10.483 120.942 10.483C120.234 10.483 119.658 9.90353 119.658 9.18389C119.658 8.46426 120.231 7.88477 120.942 7.88477ZM120.942 10.3505C121.576 10.3505 122.092 9.83156 122.092 9.18389C122.092 8.53622 121.575 8.02112 120.942 8.02112C120.309 8.02112 119.789 8.5438 119.789 9.18389C119.789 9.82399 120.302 10.3505 120.942 10.3505ZM121.143 9.29847L121.476 9.78895C121.494 9.82872 121.476 9.83914 121.436 9.83914H121.291C121.259 9.83914 121.242 9.82872 121.22 9.80316L120.898 9.32024H120.711V9.80316C120.711 9.83156 120.701 9.83914 120.669 9.83914H120.516C120.481 9.83914 120.47 9.83156 120.47 9.80316V8.56463C120.47 8.53622 120.484 8.52865 120.516 8.52865H120.966C121.182 8.52865 121.425 8.61481 121.425 8.92255C121.425 9.1375 121.294 9.25586 121.142 9.29847H121.143ZM120.963 9.1195C121.118 9.1195 121.196 9.05133 121.196 8.92255C121.196 8.78336 121.114 8.72939 120.959 8.72939H120.711V9.1195H120.962H120.963Z" fill="#00379A"/>
<path d="M9.26603 21.7008C14.2036 21.7008 18.2063 17.6522 18.2063 12.658C18.2063 7.66382 14.2036 3.61523 9.26603 3.61523C4.32848 3.61523 0.325806 7.66382 0.325806 12.658C0.325806 17.6522 4.32848 21.7008 9.26603 21.7008Z" fill="#00379A"/>
<path d="M12.6474 16.2193C12.3928 16.4769 12.1017 16.6056 11.7497 16.6056C11.3977 16.6056 11.0915 16.4617 10.807 16.1663C10.5523 15.9087 10.425 15.5991 10.425 15.2128C10.425 14.8264 10.5523 14.4941 10.807 14.2365L10.8369 14.2062C11.0915 13.9487 11.3977 13.8199 11.7572 13.8199C12.1166 13.8199 12.4228 13.9562 12.6999 14.2365C12.947 14.4865 13.0668 14.8037 13.0668 15.2128C13.0593 15.6142 12.9245 15.939 12.6474 16.2193ZM10.425 10.1725C10.425 9.77858 10.5523 9.4538 10.807 9.19625L10.8369 9.16595C11.0915 8.90839 11.3977 8.77962 11.7572 8.77962C12.1166 8.77962 12.4228 8.91597 12.6999 9.19625C12.947 9.44622 13.0668 9.76343 13.0668 10.1725C13.0668 10.5815 12.932 10.8987 12.6549 11.179C12.4003 11.4366 12.1091 11.5654 11.7572 11.5654C11.4052 11.5654 11.099 11.4214 10.8144 11.126C10.5448 10.8609 10.425 10.5512 10.425 10.1725ZM7.66431 11.1715C7.40968 11.429 7.11854 11.5578 6.76655 11.5578C6.41455 11.5578 6.10843 11.4139 5.82384 11.1184C5.56921 10.8609 5.44189 10.5512 5.44189 10.1649C5.44189 9.77858 5.56921 9.4538 5.82384 9.18867L5.8538 9.15837C6.10843 8.90082 6.41455 8.77204 6.77403 8.77204C7.13352 8.77204 7.43964 8.90839 7.71674 9.18867C7.96388 9.43865 8.08371 9.75586 8.08371 10.1649C8.07622 10.5664 7.94141 10.8912 7.66431 11.1715ZM12.1531 13.0633V12.2992C12.5725 12.2234 12.9461 12.0265 13.2681 11.7093C13.68 11.3078 13.8888 10.7861 13.8888 10.1659C13.8888 9.54565 13.6866 9.02297 13.2681 8.60728C12.8562 8.19065 12.3479 7.9795 11.7497 7.9795C11.1515 7.9795 10.6422 8.1916 10.2237 8.61486C9.90919 8.93301 9.70792 9.31082 9.63304 9.73502H8.87756C8.80267 9.29567 8.60795 8.91786 8.29434 8.59971C7.88244 8.18308 7.37411 7.97192 6.77591 7.97192C6.17771 7.97192 5.66844 8.18403 5.24998 8.60728C4.83059 9.03149 4.62183 9.55322 4.62183 10.1507C4.62183 10.431 4.67425 10.7103 4.7791 10.9754C4.89144 11.2633 5.04871 11.5048 5.24343 11.6866C5.6778 12.1032 6.19362 12.3143 6.78433 12.3143C7.37504 12.3143 7.88431 12.1022 8.30277 11.6866C8.61731 11.376 8.8111 10.9982 8.88599 10.5588H9.64146C9.67142 10.7027 9.70885 10.8391 9.76128 10.9754C9.87362 11.2633 10.0309 11.5048 10.2256 11.6866C10.5476 11.9971 10.9212 12.1931 11.3406 12.2689V13.0406C10.9212 13.1239 10.5551 13.3209 10.2406 13.6381C9.82119 14.0623 9.61244 14.584 9.61244 15.1815C9.61244 15.4618 9.66486 15.7411 9.7697 16.0062C9.88204 16.2941 10.0393 16.5356 10.234 16.7174C10.6684 17.134 11.1842 17.3451 11.7749 17.3451C12.3656 17.3451 12.8749 17.133 13.2934 16.7174C13.7053 16.3159 13.914 15.7941 13.914 15.1739C13.914 14.5537 13.7118 14.031 13.2934 13.6154C12.9564 13.3351 12.5828 13.1381 12.156 13.0633" fill="white"/>
</svg>
